Coordinates
version=1
nRows=32
nColumns=22
inDegrees=yes

Units are S.I. units (second, meters, Newtons, ...)
If the header above contains a line with 'inDegrees', this indicates whether rotational values are in degrees (yes) or radians (no).

endheader
time	pelvis_tilt	pelvis_list	pelvis_rotation	pelvis_tx	pelvis_ty	pelvis_tz	hip_flexion_r	hip_adduction_r	hip_rotation_r	knee_angle_r	ankle_angle_r	subtalar_angle_r	hip_flexion_l	hip_adduction_l	hip_rotation_l	knee_angle_l	ankle_angle_l	subtalar_angle_l	lumbar_extension	lumbar_bending	lumbar_rotation
      2.28000000	    -10.98485999	     -1.87974314	     -2.51438291	     -0.71294982	      0.97569051	      0.28486576	     32.46496095	     -1.40846054	     -3.72055689	    -34.92688203	     17.90498100	      0.66478250	     14.94634050	      3.30119327	     -4.31292591	    -17.60804347	     20.55581915	     -6.48283670	      2.37645204	      0.88751952	      2.28005740
      2.29000000	    -10.97404177	     -1.91285254	     -2.48700637	     -0.71234426	      0.97562686	      0.28496109	     32.71833423	     -1.30623213	     -3.75913776	    -34.55184578	     17.73093737	      0.71377032	     14.91721152	      3.26558272	     -4.29786583	    -17.64825711	     20.61083394	     -6.53032347	      2.28666963	      0.89786317	      2.24443053
      2.30000000	    -10.95917086	     -1.90930850	     -2.47125900	     -0.71169076	      0.97556487	      0.28511204	     32.97273981	     -1.22722921	     -3.75270832	    -34.17161541	     17.56356952	      0.75964752	     14.86321929	      3.26544092	     -4.29768732	    -17.65219965	     20.66047097	     -6.54948985	      2.19475940	      0.86494298	      2.18091691
      2.31000000	    -10.95122390	     -1.92489078	     -2.45908640	     -0.71100838	      0.97549891	      0.28528672	     33.22565824	     -1.13214771	     -3.76808405	    -33.76686881	     17.34863576	      0.82617005	     14.81830736	      3.24119624	     -4.30199038	    -17.66575838	     20.71199143	     -6.56908516	      2.10806207	      0.85490130	      2.15669534
      2.32000000	    -10.94619176	     -1.94274113	     -2.45005144	     -0.71028309	      0.97542828	      0.28549662	     33.47589899	     -1.03239505	     -3.78312901	    -33.34755537	     17.12828144	      0.90220110	     14.77317933	      3.21119565	     -4.31448388	    -17.67949455	     20.76911948	     -6.58529282	      2.02481125	      0.84790014	      2.13751558
      2.33000000	    -10.94445730	     -1.96427725	     -2.44585073	     -0.70951517	      0.97535464	      0.28573413	     33.72305904	     -0.92806450	     -3.80405818	    -32.91359839	     16.89195757	      0.98769663	     14.72857394	      3.17461539	     -4.33005498	    -17.69504654	     20.82889611	     -6.59806163	      1.94484903	      0.84626206	      2.13207797
      2.34000000	    -10.94536892	     -1.98710739	     -2.44353855	     -0.70870821	      0.97527861	      0.28599321	     33.96738299	     -0.82226945	     -3.82685932	    -32.47032329	     16.64378144	      1.07765571	     14.68299778	      3.13441078	     -4.34783009	    -17.70887083	     20.89107417	     -6.60712545	      1.86693141	      0.84868685	      2.13388181
      2.35000000	    -10.94829478	     -2.00950618	     -2.44202899	     -0.70786360	      0.97520091	      0.28626462	     34.20861715	     -0.71798206	     -3.85094085	    -32.02115206	     16.38427803	      1.16898629	     14.63501004	      3.09387512	     -4.36691761	    -17.71894406	     20.95461096	     -6.61269093	      1.79009370	      0.85341560	      2.14347138
      2.36000000	    -10.95266550	     -2.02792394	     -2.44203859	     -0.70697869	      0.97512221	      0.28655322	     34.44667482	     -0.61822832	     -3.87084518	    -31.56848902	     16.10742527	      1.25964801	     14.58011216	      3.05634497	     -4.38635139	    -17.71884563	     21.01925277	     -6.61511856	      1.71491523	      0.85647772	      2.15677857
      2.37000000	    -10.95831635	     -2.06704390	     -2.44487080	     -0.70606883	      0.97503935	      0.28685949	     34.67566753	     -0.50063448	     -3.90068000	    -31.10769637	     15.81852413	      1.38139167	     14.53669870	      2.99194402	     -4.42278477	    -17.74464538	     21.09264505	     -6.61409247	      1.63576325	      0.88689835	      2.20116894
      2.38000000	    -10.96294381	     -2.05920935	     -2.44889948	     -0.70509592	      0.97495298	      0.28716478	     34.91025190	     -0.43052933	     -3.90272726	    -30.66871559	     15.51453086	      1.46812057	     14.45697058	      2.98399592	     -4.43475110	    -17.70505673	     21.15927127	     -6.61056066	      1.56075193	      0.86697375	      2.20632731
      2.39000000	    -10.96676961	     -2.06569002	     -2.45842979	     -0.70410132	      0.97486202	      0.28749441	     35.13579368	     -0.34883567	     -3.91546299	    -30.22705823	     15.18080780	      1.57174646	     14.38396765	      2.95616411	     -4.46014338	    -17.68554413	     21.22565676	     -6.60757103	      1.47957219	      0.86600339	      2.24716378
      2.40000000	    -10.96638265	     -2.09404840	     -2.47310069	     -0.70307750	      0.97476406	      0.28784892	     35.34449902	     -0.24827416	     -3.94093509	    -29.77931286	     14.85493284	      1.72787820	     14.31917267	      2.89896193	     -4.51004581	    -17.69746398	     21.30390612	     -6.60026943	      1.38833448	      0.89277743	      2.31611903
      2.41000000	    -10.96858483	     -2.07058127	     -2.47835844	     -0.70198913	      0.97463727	      0.28818051	     35.56758081	     -0.21207521	     -3.97573133	    -29.36620661	     14.53026589	      1.83806813	     14.22576522	      2.90569169	     -4.52852905	    -17.64936337	     21.38824479	     -6.59523527	      1.30566459	      0.86386890	      2.33544904
      2.42000000	    -10.96715337	     -2.06259043	     -2.48551986	     -0.70086104	      0.97449896	      0.28851865	     35.77585834	     -0.16861746	     -4.04581335	    -28.94867019	     14.21303007	      1.97804119	     14.13981974	      2.89283419	     -4.55725031	    -17.63069820	     21.46558192	     -6.59046318	      1.21459045	      0.85424768	      2.38728454
      2.43000000	    -10.94543825	     -2.08127146	     -2.48482323	     -0.69964919	      0.97437949	      0.28885652	     35.93868548	     -0.11299055	     -4.16153233	    -28.51223440	     13.98111709	      2.31593991	     14.03702589	      2.84968955	     -4.60328904	    -17.63433359	     21.56917129	     -6.56828265	      1.09922593	      0.88005960	      2.43071740
      2.44000000	    -10.94036683	     -2.02841360	     -2.47934616	     -0.69840316	      0.97419193	      0.28917156	     36.14697747	     -0.13766272	     -4.29664633	    -28.13111496	     13.74915942	      2.42572286	     13.93510260	      2.89176459	     -4.61027673	    -17.60182088	     21.64902552	     -6.56390480	      1.00667628	      0.82379325	      2.47489907
      2.45000000	    -10.90415907	     -2.02794030	     -2.45694046	     -0.69706124	      0.97406007	      0.28947446	     36.28493796	     -0.12790616	     -4.47172658	    -27.71821319	     13.60756123	      2.77238386	     13.80874273	      2.87867006	     -4.61412465	    -17.60269748	     21.74186867	     -6.54167502	      0.87527911	      0.83229183	      2.49792603
      2.46000000	    -10.89560782	     -1.96782713	     -2.44920245	     -0.69569150	      0.97384153	      0.28980969	     36.48150346	     -0.16745683	     -4.61409411	    -27.37011729	     13.46971189	      2.86303534	     13.70754408	      2.92743763	     -4.61637781	    -17.59489212	     21.83633096	     -6.53708365	      0.77881816	      0.77208780	      2.54929161
      2.47000000	    -10.85448598	     -1.96296383	     -2.42106237	     -0.69425034	      0.97369888	      0.29014294	     36.60704918	     -0.16656354	     -4.76178520	    -26.99913917	     13.37774447	      3.14762229	     13.58126739	      2.91935015	     -4.59684331	    -17.61750444	     21.93562596	     -6.50553964	      0.63886983	      0.77961444	      2.57119047
      2.48000000	    -10.84845333	     -1.91295993	     -2.41051228	     -0.69278611	      0.97347055	      0.29053975	     36.79311359	     -0.19241796	     -4.84133959	    -26.69068124	     13.27483046	      3.20742032	     13.49032971	      2.95358052	     -4.58368168	    -17.63702170	     22.04105142	     -6.49884524	      0.54117744	      0.72977049	      2.62216483
      2.49000000	    -10.83187077	     -1.90967346	     -2.39282848	     -0.69126160	      0.97328063	      0.29094960	     36.93946401	     -0.17697285	     -4.91111523	    -26.36828425	     13.16265729	      3.32272933	     13.39575959	      2.93499323	     -4.57505641	    -17.68242023	     22.14542814	     -6.46711179	      0.42850898	      0.74042458	      2.66307766
      2.50000000	    -10.83166806	     -1.87209251	     -2.37367450	     -0.68969411	      0.97305219	      0.29137824	     37.11081525	     -0.19060901	     -4.93471426	    -26.08465564	     13.05399248	      3.35873732	     13.30870242	      2.95461151	     -4.55287505	    -17.71021176	     22.25931683	     -6.45376468	      0.33661096	      0.70892688	      2.70213657
      2.51000000	    -10.83398548	     -1.85405647	     -2.35430169	     -0.68805664	      0.97283204	      0.29182604	     37.26772264	     -0.18548732	     -4.95311948	    -25.79871322	     12.92421104	      3.39223169	     13.21952639	      2.94953230	     -4.54065986	    -17.73929215	     22.36926440	     -6.42979020	      0.24894740	      0.70398908	      2.74110139
      2.52000000	    -10.83845226	     -1.83566565	     -2.32981803	     -0.68634432	      0.97261590	      0.29227566	     37.41153336	     -0.18344401	     -4.97003407	    -25.50989526	     12.80135676	      3.41587581	     13.12393101	      2.94528817	     -4.53432239	    -17.75966184	     22.47666551	     -6.39922295	      0.16757180	      0.70164702	      2.77478667
      2.53000000	    -10.84303430	     -1.81864752	     -2.30036513	     -0.68455118	      0.97240618	      0.29273587	     37.54071440	     -0.18225930	     -4.98556587	    -25.21975774	     12.68167709	      3.43296046	     13.01751862	      2.93915463	     -4.52845914	    -17.76857184	     22.58081086	     -6.35984328	      0.08872026	      0.70225944	      2.80228928
      2.54000000	    -10.84532368	     -1.80409545	     -2.26522104	     -0.68267373	      0.97220900	      0.29321454	     37.64794689	     -0.17961730	     -4.99904831	    -24.92062307	     12.57025098	      3.44428644	     12.90033499	      2.93012538	     -4.52072855	    -17.77128346	     22.68262472	     -6.30883267	      0.01013987	      0.70605749	      2.82387798
      2.55000000	    -10.84759437	     -1.79219075	     -2.22434764	     -0.68072062	      0.97201474	      0.29370865	     37.73813257	     -0.17519631	     -4.99996971	    -24.61746823	     12.47396282	      3.44996664	     12.77722300	      2.91817673	     -4.50650938	    -17.77180741	     22.78352581	     -6.25112839	     -0.06726905	      0.71505799	      2.83466179
      2.56000000	    -10.82544738	     -1.80983544	     -2.17217830	     -0.67867922	      0.97187429	      0.29422655	     37.77265158	     -0.14840799	     -5.01627522	    -24.29507589	     12.37929444	      3.43911832	     12.63064657	      2.87254443	     -4.49698897	    -17.78897191	     22.88822530	     -6.13879292	     -0.17429436	      0.75573597	      2.85809384
      2.57000000	    -10.85006436	     -1.78775632	     -2.11250057	     -0.67659413	      0.97163759	      0.29476653	     37.85601323	     -0.15322802	     -4.95874819	    -23.99646700	     12.34273752	      3.43646906	     12.52832310	      2.86998613	     -4.46864546	    -17.79551895	     22.98462443	     -6.10179279	     -0.22174533	      0.75231584	      2.83152729
      2.58000000	    -10.83155550	     -1.82658012	     -2.03789574	     -0.67441144	      0.97149230	      0.29533284	     37.85050168	     -0.11109426	     -4.94435699	    -23.66066223	     12.27684123	      3.39090815	     12.38887660	      2.79851232	     -4.44659692	    -17.83507401	     23.10874969	     -5.94762447	     -0.32265407	      0.81826052	      2.81552422
      2.59000000	    -10.87097272	     -1.81696507	     -1.96384522	     -0.67220189	      0.97122451	      0.29591555	     37.91279308	     -0.10657350	     -4.85497430	    -23.35898441	     12.26356912	      3.38199313	     12.30643632	      2.78211664	     -4.38684018	    -17.86556146	     23.21056455	     -5.91288333	     -0.35115654	      0.83254296	      2.79484003
